# xmcd
# 
# Track frame offsets:
#     150
#     20200
#     45600
#     65285
#     88232
#     108280
#     133062
#     156152
#     176910
#     200877
#     224380
# 
# Disc length: 3286
# 
# Revision: 5
# Processed by: cddbd v1.5.2PL0 Copyright (c) Steve Scherf et al.
# Submitted via: fre:ac v1.0.17
# 
DISCID=a80cd40b
DTITLE=Karyn White - Make Him Do Right
DYEAR=1994
DGENRE=R&B
TTITLE0=Hungah
TTITLE1=Can I Stay With You
TTITLE2=Weakness
TTITLE3=Nobody But My Baby
TTITLE4=Here Comes The Pain Again
TTITLE5=I'd Rather Be Alone
TTITLE6=Make Him Do Right
TTITLE7=Simple Pleasures
TTITLE8=I'm Your Woman
TTITLE9=Thinkin' 'Bout Love
TTITLE10=One Minute
EXTD=
EXTT0=
EXTT1=
EXTT2=
EXTT3=
EXTT4=
EXTT5=
EXTT6=
EXTT7=
EXTT8=
EXTT9=
EXTT10=
PLAYORDER=
